<svg width="280" height="48" viewBox="0 0 280 48" fill="none" xmlns="http://www.w3.org/2000/svg">
  <!-- Heart Icon with Gradient -->
  <defs>
    <linearGradient id="heartGradient" x1="0%" y1="0%" x2="100%" y2="100%">
      <stop offset="0%" style="stop-color:#8B5CF6;stop-opacity:1" />
      <stop offset="100%" style="stop-color:#C4B5FD;stop-opacity:1" />
    </linearGradient>
  </defs>
  
  <!-- Stylized Heart Icon -->
  <path d="M24 42.5c-.5 0-1-.2-1.4-.6-2.8-2.8-5.2-5.2-7.1-7.4-3.2-3.6-5.5-6.2-5.5-9.5 0-4.4 3.6-8 8-8 2.5 0 4.8 1.2 6 3.1 1.2-1.9 3.5-3.1 6-3.1 4.4 0 8 3.6 8 8 0 3.3-2.3 5.9-5.5 9.5-1.9 2.2-4.3 4.6-7.1 7.4-.4.4-.9.6-1.4.6z" 
        fill="url(#heartGradient)" 
        stroke="url(#heartGradient)" 
        stroke-width="1.5" 
        stroke-linecap="round" 
        stroke-linejoin="round"/>
  
  <!-- Flowing accent inside heart -->
  <path d="M18 25c2-2 4-3 6-3s4 1 6 3" 
        stroke="#FFFFFF" 
        stroke-width="1.5" 
        stroke-linecap="round" 
        fill="none" 
        opacity="0.4"/>
  
  <!-- MindWell Health Text -->
  <text x="58" y="32" font-family="Georgia, 'Times New Roman', serif" font-size="24" font-weight="600" fill="#2D3748" letter-spacing="-0.5">
    MindWell Health
  </text>
</svg>
